<?xml version="1.0" encoding="UTF-8" standalone="no"?>
<!-- Created with Inkscape (http://www.inkscape.org/) -->

<svg
   xmlns:dc="http://purl.org/dc/elements/1.1/"
   xmlns:cc="http://creativecommons.org/ns#"
   xmlns:rdf="http://www.w3.org/1999/02/22-rdf-syntax-ns#"
   xmlns:svg="http://www.w3.org/2000/svg"
   xmlns="http://www.w3.org/2000/svg"
   xmlns:sodipodi="http://sodipodi.sourceforge.net/DTD/sodipodi-0.dtd"
   xmlns:inkscape="http://www.inkscape.org/namespaces/inkscape"
   version="1.1"
   width="300"
   height="299.97186"
   id="svg8489"
   inkscape:version="0.91 r13725"
   sodipodi:docname="Association_for_Computing_Machinery_Chapter_(ACM)_logo.svg">
  <sodipodi:namedview
     pagecolor="#ffffff"
     bordercolor="#666666"
     borderopacity="1"
     objecttolerance="10"
     gridtolerance="10"
     guidetolerance="10"
     inkscape:pageopacity="0"
     inkscape:pageshadow="2"
     inkscape:window-width="1920"
     inkscape:window-height="1027"
     id="namedview3545"
     showgrid="false"
     inkscape:zoom="2.8602683"
     inkscape:cx="150"
     inkscape:cy="149.98593"
     inkscape:window-x="-8"
     inkscape:window-y="-8"
     inkscape:window-maximized="1"
     inkscape:current-layer="svg8489" />
  <defs
     id="defs8491">
    <clipPath
       id="clip8">
      <path
         d="M 36,788.34766 56.878906,809.21484 77.746094,788.34766 56.878906,767.47266 Z"
         id="path2126" />
    </clipPath>
    <linearGradient
       x1="1.61796e-005"
       y1="0"
       x2="0.99999601"
       y2="0"
       id="linear4"
       gradientUnits="userSpaceOnUse"
       gradientTransform="matrix(0,-41.743835,41.743835,0,32.893616,809.21667)">
      <stop
         id="stop2129"
         style="stop-color:#3792c1;stop-opacity:1"
         offset="0" />
      <stop
         id="stop2131"
         style="stop-color:#3792c1;stop-opacity:1"
         offset="0.015625" />
      <stop
         id="stop2133"
         style="stop-color:#3893c2;stop-opacity:1"
         offset="0.03125" />
      <stop
         id="stop2135"
         style="stop-color:#3993c3;stop-opacity:1"
         offset="0.046875" />
      <stop
         id="stop2137"
         style="stop-color:#3a94c3;stop-opacity:1"
         offset="0.0625" />
      <stop
         id="stop2139"
         style="stop-color:#3b95c4;stop-opacity:1"
         offset="0.078125" />
      <stop
         id="stop2141"
         style="stop-color:#3c96c5;stop-opacity:1"
         offset="0.09375" />
      <stop
         id="stop2143"
         style="stop-color:#3d96c5;stop-opacity:1"
         offset="0.109375" />
      <stop
         id="stop2145"
         style="stop-color:#3e97c6;stop-opacity:1"
         offset="0.125" />
      <stop
         id="stop2147"
         style="stop-color:#3f98c7;stop-opacity:1"
         offset="0.140625" />
      <stop
         id="stop2149"
         style="stop-color:#4099c7;stop-opacity:1"
         offset="0.15625" />
      <stop
         id="stop2151"
         style="stop-color:#4199c8;stop-opacity:1"
         offset="0.171875" />
      <stop
         id="stop2153"
         style="stop-color:#429ac9;stop-opacity:1"
         offset="0.1875" />
      <stop
         id="stop2155"
         style="stop-color:#439bc9;stop-opacity:1"
         offset="0.203125" />
      <stop
         id="stop2157"
         style="stop-color:#449cca;stop-opacity:1"
         offset="0.21875" />
      <stop
         id="stop2159"
         style="stop-color:#459ccb;stop-opacity:1"
         offset="0.234375" />
      <stop
         id="stop2161"
         style="stop-color:#469dcb;stop-opacity:1"
         offset="0.25" />
      <stop
         id="stop2163"
         style="stop-color:#489ecc;stop-opacity:1"
         offset="0.265625" />
      <stop
         id="stop2165"
         style="stop-color:#499ecd;stop-opacity:1"
         offset="0.28125" />
      <stop
         id="stop2167"
         style="stop-color:#4a9fcd;stop-opacity:1"
         offset="0.296875" />
      <stop
         id="stop2169"
         style="stop-color:#4ba0ce;stop-opacity:1"
         offset="0.3125" />
      <stop
         id="stop2171"
         style="stop-color:#4ca1cf;stop-opacity:1"
         offset="0.328125" />
      <stop
         id="stop2173"
         style="stop-color:#4da2cf;stop-opacity:1"
         offset="0.34375" />
      <stop
         id="stop2175"
         style="stop-color:#4ea2d0;stop-opacity:1"
         offset="0.359375" />
      <stop
         id="stop2177"
         style="stop-color:#4fa3d1;stop-opacity:1"
         offset="0.375" />
      <stop
         id="stop2179"
         style="stop-color:#50a4d1;stop-opacity:1"
         offset="0.390625" />
      <stop
         id="stop2181"
         style="stop-color:#51a5d2;stop-opacity:1"
         offset="0.40625" />
      <stop
         id="stop2183"
         style="stop-color:#52a5d3;stop-opacity:1"
         offset="0.41406301" />
      <stop
         id="stop2185"
         style="stop-color:#53a6d3;stop-opacity:1"
         offset="0.421875" />
      <stop
         id="stop2187"
         style="stop-color:#54a6d4;stop-opacity:1"
         offset="0.4375" />
      <stop
         id="stop2189"
         style="stop-color:#54a7d4;stop-opacity:1"
         offset="0.44531301" />
      <stop
         id="stop2191"
         style="stop-color:#55a7d4;stop-opacity:1"
         offset="0.453125" />
      <stop
         id="stop2193"
         style="stop-color:#56a7d5;stop-opacity:1"
         offset="0.46093801" />
      <stop
         id="stop2195"
         style="stop-color:#56a8d5;stop-opacity:1"
         offset="0.46875" />
      <stop
         id="stop2197"
         style="stop-color:#57a8d5;stop-opacity:1"
         offset="0.47656301" />
      <stop
         id="stop2199"
         style="stop-color:#57a9d6;stop-opacity:1"
         offset="0.484375" />
      <stop
         id="stop2201"
         style="stop-color:#58a9d6;stop-opacity:1"
         offset="0.49218801" />
      <stop
         id="stop2203"
         style="stop-color:#58a9d6;stop-opacity:1"
         offset="0.5" />
      <stop
         id="stop2205"
         style="stop-color:#59aad7;stop-opacity:1"
         offset="0.50781298" />
      <stop
         id="stop2207"
         style="stop-color:#5aaad7;stop-opacity:1"
         offset="0.515625" />
      <stop
         id="stop2209"
         style="stop-color:#5aabd7;stop-opacity:1"
         offset="0.52343798" />
      <stop
         id="stop2211"
         style="stop-color:#5babd8;stop-opacity:1"
         offset="0.53125" />
      <stop
         id="stop2213"
         style="stop-color:#5babd8;stop-opacity:1"
         offset="0.53906298" />
      <stop
         id="stop2215"
         style="stop-color:#5cacd9;stop-opacity:1"
         offset="0.546875" />
      <stop
         id="stop2217"
         style="stop-color:#5dacd9;stop-opacity:1"
         offset="0.55468798" />
      <stop
         id="stop2219"
         style="stop-color:#5dadd9;stop-opacity:1"
         offset="0.5625" />
      <stop
         id="stop2221"
         style="stop-color:#5eadda;stop-opacity:1"
         offset="0.57031298" />
      <stop
         id="stop2223"
         style="stop-color:#5eadda;stop-opacity:1"
         offset="0.578125" />
      <stop
         id="stop2225"
         style="stop-color:#5faeda;stop-opacity:1"
         offset="0.58593798" />
      <stop
         id="stop2227"
         style="stop-color:#60aedb;stop-opacity:1"
         offset="0.59375" />
      <stop
         id="stop2229"
         style="stop-color:#60aedb;stop-opacity:1"
         offset="0.60156298" />
      <stop
         id="stop2231"
         style="stop-color:#61afdb;stop-opacity:1"
         offset="0.609375" />
      <stop
         id="stop2233"
         style="stop-color:#61afdc;stop-opacity:1"
         offset="0.61718798" />
      <stop
         id="stop2235"
         style="stop-color:#62b0dc;stop-opacity:1"
         offset="0.625" />
      <stop
         id="stop2237"
         style="stop-color:#63b0dc;stop-opacity:1"
         offset="0.63281298" />
      <stop
         id="stop2239"
         style="stop-color:#63b0dd;stop-opacity:1"
         offset="0.640625" />
      <stop
         id="stop2241"
         style="stop-color:#64b1dd;stop-opacity:1"
         offset="0.64843798" />
      <stop
         id="stop2243"
         style="stop-color:#64b1dd;stop-opacity:1"
         offset="0.65625" />
      <stop
         id="stop2245"
         style="stop-color:#65b2de;stop-opacity:1"
         offset="0.66406298" />
      <stop
         id="stop2247"
         style="stop-color:#66b2de;stop-opacity:1"
         offset="0.671875" />
      <stop
         id="stop2249"
         style="stop-color:#66b2de;stop-opacity:1"
         offset="0.67968798" />
      <stop
         id="stop2251"
         style="stop-color:#67b3df;stop-opacity:1"
         offset="0.6875" />
      <stop
         id="stop2253"
         style="stop-color:#67b3df;stop-opacity:1"
         offset="0.69531298" />
      <stop
         id="stop2255"
         style="stop-color:#68b4df;stop-opacity:1"
         offset="0.703125" />
      <stop
         id="stop2257"
         style="stop-color:#69b4e0;stop-opacity:1"
         offset="0.71093798" />
      <stop
         id="stop2259"
         style="stop-color:#69b4e0;stop-opacity:1"
         offset="0.71875" />
      <stop
         id="stop2261"
         style="stop-color:#6ab5e1;stop-opacity:1"
         offset="0.72656298" />
      <stop
         id="stop2263"
         style="stop-color:#6bb5e1;stop-opacity:1"
         offset="0.734375" />
      <stop
         id="stop2265"
         style="stop-color:#6bb6e1;stop-opacity:1"
         offset="0.74218798" />
      <stop
         id="stop2267"
         style="stop-color:#6cb6e2;stop-opacity:1"
         offset="0.75" />
      <stop
         id="stop2269"
         style="stop-color:#6cb6e2;stop-opacity:1"
         offset="0.75781202" />
      <stop
         id="stop2271"
         style="stop-color:#6db7e2;stop-opacity:1"
         offset="0.765625" />
      <stop
         id="stop2273"
         style="stop-color:#6eb7e3;stop-opacity:1"
         offset="0.77343798" />
      <stop
         id="stop2275"
         style="stop-color:#6eb8e3;stop-opacity:1"
         offset="0.78125" />
      <stop
         id="stop2277"
         style="stop-color:#6fb8e3;stop-opacity:1"
         offset="0.78906298" />
      <stop
         id="stop2279"
         style="stop-color:#70b8e4;stop-opacity:1"
         offset="0.796875" />
      <stop
         id="stop2281"
         style="stop-color:#70b9e4;stop-opacity:1"
         offset="0.80468702" />
      <stop
         id="stop2283"
         style="stop-color:#71b9e4;stop-opacity:1"
         offset="0.8125" />
      <stop
         id="stop2285"
         style="stop-color:#71bae5;stop-opacity:1"
         offset="0.82031298" />
      <stop
         id="stop2287"
         style="stop-color:#72bae5;stop-opacity:1"
         offset="0.828125" />
      <stop
         id="stop2289"
         style="stop-color:#73bae5;stop-opacity:1"
         offset="0.83593798" />
      <stop
         id="stop2291"
         style="stop-color:#73bbe6;stop-opacity:1"
         offset="0.84375" />
      <stop
         id="stop2293"
         style="stop-color:#74bbe6;stop-opacity:1"
         offset="0.85156202" />
      <stop
         id="stop2295"
         style="stop-color:#75bce6;stop-opacity:1"
         offset="0.859375" />
      <stop
         id="stop2297"
         style="stop-color:#75bce7;stop-opacity:1"
         offset="0.86718798" />
      <stop
         id="stop2299"
         style="stop-color:#76bde7;stop-opacity:1"
         offset="0.875" />
      <stop
         id="stop2301"
         style="stop-color:#77bde8;stop-opacity:1"
         offset="0.88281298" />
      <stop
         id="stop2303"
         style="stop-color:#77bde8;stop-opacity:1"
         offset="0.890625" />
      <stop
         id="stop2305"
         style="stop-color:#78bee8;stop-opacity:1"
         offset="0.89843798" />
      <stop
         id="stop2307"
         style="stop-color:#79bee9;stop-opacity:1"
         offset="0.90625" />
      <stop
         id="stop2309"
         style="stop-color:#79bfe9;stop-opacity:1"
         offset="0.91406298" />
      <stop
         id="stop2311"
         style="stop-color:#7abfe9;stop-opacity:1"
         offset="0.921875" />
      <stop
         id="stop2313"
         style="stop-color:#7bbfea;stop-opacity:1"
         offset="0.92968798" />
      <stop
         id="stop2315"
         style="stop-color:#7bc0ea;stop-opacity:1"
         offset="0.9375" />
      <stop
         id="stop2317"
         style="stop-color:#7cc0ea;stop-opacity:1"
         offset="0.94531298" />
      <stop
         id="stop2319"
         style="stop-color:#7dc1eb;stop-opacity:1"
         offset="0.953125" />
      <stop
         id="stop2321"
         style="stop-color:#7dc1eb;stop-opacity:1"
         offset="0.96093798" />
      <stop
         id="stop2323"
         style="stop-color:#7ec1eb;stop-opacity:1"
         offset="0.96875" />
      <stop
         id="stop2325"
         style="stop-color:#7fc2ec;stop-opacity:1"
         offset="0.97656298" />
      <stop
         id="stop2327"
         style="stop-color:#7fc2ec;stop-opacity:1"
         offset="0.984375" />
      <stop
         id="stop2329"
         style="stop-color:#80c3ed;stop-opacity:1"
         offset="0.99218798" />
      <stop
         id="stop2331"
         style="stop-color:#81c3ed;stop-opacity:1"
         offset="1" />
    </linearGradient>
    <clipPath
       id="clip9">
      <path
         d="m 45.355469,788.34766 c 0,6.35937 5.15625,11.51562 11.523437,11.51562 6.359375,0 11.511719,-5.15625 11.511719,-11.51562 0,-6.36719 -5.152344,-11.51954 -11.511719,-11.51954 -6.367187,0 -11.523437,5.15235 -11.523437,11.51954"
         id="path2334" />
    </clipPath>
    <linearGradient
       x1="-0.0168775"
       y1="0"
       x2="0.99997199"
       y2="0"
       id="linear5"
       gradientUnits="userSpaceOnUse"
       gradientTransform="matrix(0,22.65625,-22.65625,0,71.496887,777.20938)">
      <stop
         id="stop2337"
         style="stop-color:#3792c1;stop-opacity:1"
         offset="0.0165979" />
      <stop
         id="stop2339"
         style="stop-color:#3792c1;stop-opacity:1"
         offset="0.03125" />
      <stop
         id="stop2341"
         style="stop-color:#3792c1;stop-opacity:1"
         offset="0.0390625" />
      <stop
         id="stop2343"
         style="stop-color:#3893c2;stop-opacity:1"
         offset="0.0429687" />
      <stop
         id="stop2345"
         style="stop-color:#3993c2;stop-opacity:1"
         offset="0.046875" />
      <stop
         id="stop2347"
         style="stop-color:#3993c3;stop-opacity:1"
         offset="0.0546875" />
      <stop
         id="stop2349"
         style="stop-color:#3a94c3;stop-opacity:1"
         offset="0.0625" />
      <stop
         id="stop2351"
         style="stop-color:#3b95c4;stop-opacity:1"
         offset="0.0703125" />
      <stop
         id="stop2353"
         style="stop-color:#3c96c5;stop-opacity:1"
         offset="0.078125" />
      <stop
         id="stop2355"
         style="stop-color:#3d96c5;stop-opacity:1"
         offset="0.0859375" />
      <stop
         id="stop2357"
         style="stop-color:#3e97c6;stop-opacity:1"
         offset="0.09375" />
      <stop
         id="stop2359"
         style="stop-color:#3f98c7;stop-opacity:1"
         offset="0.101563" />
      <stop
         id="stop2361"
         style="stop-color:#4098c7;stop-opacity:1"
         offset="0.109375" />
      <stop
         id="stop2363"
         style="stop-color:#4199c8;stop-opacity:1"
         offset="0.117187" />
      <stop
         id="stop2365"
         style="stop-color:#429ac8;stop-opacity:1"
         offset="0.125" />
      <stop
         id="stop2367"
         style="stop-color:#439bc9;stop-opacity:1"
         offset="0.13281301" />
      <stop
         id="stop2369"
         style="stop-color:#449bca;stop-opacity:1"
         offset="0.140625" />
      <stop
         id="stop2371"
         style="stop-color:#459cca;stop-opacity:1"
         offset="0.14843801" />
      <stop
         id="stop2373"
         style="stop-color:#469dcb;stop-opacity:1"
         offset="0.15625" />
      <stop
         id="stop2375"
         style="stop-color:#479dcc;stop-opacity:1"
         offset="0.16406301" />
      <stop
         id="stop2377"
         style="stop-color:#489ecc;stop-opacity:1"
         offset="0.171875" />
      <stop
         id="stop2379"
         style="stop-color:#499fcd;stop-opacity:1"
         offset="0.17968699" />
      <stop
         id="stop2381"
         style="stop-color:#4a9fcd;stop-opacity:1"
         offset="0.1875" />
      <stop
         id="stop2383"
         style="stop-color:#4aa0ce;stop-opacity:1"
         offset="0.19531301" />
      <stop
         id="stop2385"
         style="stop-color:#4ba0ce;stop-opacity:1"
         offset="0.203125" />
      <stop
         id="stop2387"
         style="stop-color:#4ca1cf;stop-opacity:1"
         offset="0.21093801" />
      <stop
         id="stop2389"
         style="stop-color:#4da2d0;stop-opacity:1"
         offset="0.21875" />
      <stop
         id="stop2391"
         style="stop-color:#4ea2d0;stop-opacity:1"
         offset="0.22656199" />
      <stop
         id="stop2393"
         style="stop-color:#4fa3d1;stop-opacity:1"
         offset="0.234375" />
      <stop
         id="stop2395"
         style="stop-color:#50a4d1;stop-opacity:1"
         offset="0.24218801" />
      <stop
         id="stop2397"
         style="stop-color:#51a4d2;stop-opacity:1"
         offset="0.25" />
      <stop
         id="stop2399"
         style="stop-color:#52a5d2;stop-opacity:1"
         offset="0.25781301" />
      <stop
         id="stop2401"
         style="stop-color:#53a5d3;stop-opacity:1"
         offset="0.265625" />
      <stop
         id="stop2403"
         style="stop-color:#54a6d3;stop-opacity:1"
         offset="0.27343801" />
      <stop
         id="stop2405"
         style="stop-color:#54a7d4;stop-opacity:1"
         offset="0.28125" />
      <stop
         id="stop2407"
         style="stop-color:#55a7d5;stop-opacity:1"
         offset="0.28906301" />
      <stop
         id="stop2409"
         style="stop-color:#56a8d5;stop-opacity:1"
         offset="0.296875" />
      <stop
         id="stop2411"
         style="stop-color:#57a8d6;stop-opacity:1"
         offset="0.30468801" />
      <stop
         id="stop2413"
         style="stop-color:#58a9d6;stop-opacity:1"
         offset="0.3125" />
      <stop
         id="stop2415"
         style="stop-color:#59a9d7;stop-opacity:1"
         offset="0.32031301" />
      <stop
         id="stop2417"
         style="stop-color:#59aad7;stop-opacity:1"
         offset="0.328125" />
      <stop
         id="stop2419"
         style="stop-color:#5aabd8;stop-opacity:1"
         offset="0.33593801" />
      <stop
         id="stop2421"
         style="stop-color:#5babd8;stop-opacity:1"
         offset="0.34375" />
      <stop
         id="stop2423"
         style="stop-color:#5cacd8;stop-opacity:1"
         offset="0.35156199" />
      <stop
         id="stop2425"
         style="stop-color:#5dacd9;stop-opacity:1"
         offset="0.359375" />
      <stop
         id="stop2427"
         style="stop-color:#5eadd9;stop-opacity:1"
         offset="0.36718801" />
      <stop
         id="stop2429"
         style="stop-color:#5eadda;stop-opacity:1"
         offset="0.375" />
      <stop
         id="stop2431"
         style="stop-color:#5faeda;stop-opacity:1"
         offset="0.38281301" />
      <stop
         id="stop2433"
         style="stop-color:#60aedb;stop-opacity:1"
         offset="0.390625" />
      <stop
         id="stop2435"
         style="stop-color:#61afdb;stop-opacity:1"
         offset="0.39843801" />
      <stop
         id="stop2437"
         style="stop-color:#61afdc;stop-opacity:1"
         offset="0.40625" />
      <stop
         id="stop2439"
         style="stop-color:#62b0dc;stop-opacity:1"
         offset="0.41406301" />
      <stop
         id="stop2441"
         style="stop-color:#63b0dd;stop-opacity:1"
         offset="0.421875" />
      <stop
         id="stop2443"
         style="stop-color:#64b1dd;stop-opacity:1"
         offset="0.42968801" />
      <stop
         id="stop2445"
         style="stop-color:#64b1dd;stop-opacity:1"
         offset="0.4375" />
      <stop
         id="stop2447"
         style="stop-color:#65b2de;stop-opacity:1"
         offset="0.44531199" />
      <stop
         id="stop2449"
         style="stop-color:#66b2de;stop-opacity:1"
         offset="0.453125" />
      <stop
         id="stop2451"
         style="stop-color:#67b3df;stop-opacity:1"
         offset="0.46093801" />
      <stop
         id="stop2453"
         style="stop-color:#67b3df;stop-opacity:1"
         offset="0.46875" />
      <stop
         id="stop2455"
         style="stop-color:#68b4df;stop-opacity:1"
         offset="0.47656301" />
      <stop
         id="stop2457"
         style="stop-color:#69b4e0;stop-opacity:1"
         offset="0.484375" />
      <stop
         id="stop2459"
         style="stop-color:#69b4e0;stop-opacity:1"
         offset="0.49218801" />
      <stop
         id="stop2461"
         style="stop-color:#6ab5e1;stop-opacity:1"
         offset="0.5" />
      <stop
         id="stop2463"
         style="stop-color:#6bb5e1;stop-opacity:1"
         offset="0.50781298" />
      <stop
         id="stop2465"
         style="stop-color:#6bb6e1;stop-opacity:1"
         offset="0.515625" />
      <stop
         id="stop2467"
         style="stop-color:#6cb6e2;stop-opacity:1"
         offset="0.52343702" />
      <stop
         id="stop2469"
         style="stop-color:#6db7e2;stop-opacity:1"
         offset="0.53125" />
      <stop
         id="stop2471"
         style="stop-color:#6eb7e3;stop-opacity:1"
         offset="0.546875" />
      <stop
         id="stop2473"
         style="stop-color:#6fb8e3;stop-opacity:1"
         offset="0.5625" />
      <stop
         id="stop2475"
         style="stop-color:#70b9e4;stop-opacity:1"
         offset="0.578125" />
      <stop
         id="stop2477"
         style="stop-color:#71b9e5;stop-opacity:1"
         offset="0.59375" />
      <stop
         id="stop2479"
         style="stop-color:#72bae5;stop-opacity:1"
         offset="0.609375" />
      <stop
         id="stop2481"
         style="stop-color:#73bbe6;stop-opacity:1"
         offset="0.625" />
      <stop
         id="stop2483"
         style="stop-color:#74bce6;stop-opacity:1"
         offset="0.640625" />
      <stop
         id="stop2485"
         style="stop-color:#75bce7;stop-opacity:1"
         offset="0.65625" />
      <stop
         id="stop2487"
         style="stop-color:#76bde7;stop-opacity:1"
         offset="0.671875" />
      <stop
         id="stop2489"
         style="stop-color:#77bde8;stop-opacity:1"
         offset="0.6875" />
      <stop
         id="stop2491"
         style="stop-color:#78bee8;stop-opacity:1"
         offset="0.703125" />
      <stop
         id="stop2493"
         style="stop-color:#79bee9;stop-opacity:1"
         offset="0.71875" />
      <stop
         id="stop2495"
         style="stop-color:#7abfe9;stop-opacity:1"
         offset="0.734375" />
      <stop
         id="stop2497"
         style="stop-color:#7bbfea;stop-opacity:1"
         offset="0.75" />
      <stop
         id="stop2499"
         style="stop-color:#7bc0ea;stop-opacity:1"
         offset="0.765625" />
      <stop
         id="stop2501"
         style="stop-color:#7cc0ea;stop-opacity:1"
         offset="0.78125" />
      <stop
         id="stop2503"
         style="stop-color:#7dc1eb;stop-opacity:1"
         offset="0.8125" />
      <stop
         id="stop2505"
         style="stop-color:#7ec2eb;stop-opacity:1"
         offset="0.84375" />
      <stop
         id="stop2507"
         style="stop-color:#7fc2ec;stop-opacity:1"
         offset="0.875" />
      <stop
         id="stop2509"
         style="stop-color:#80c3ed;stop-opacity:1"
         offset="0.9375" />
      <stop
         id="stop2511"
         style="stop-color:#81c3ed;stop-opacity:1"
         offset="1" />
    </linearGradient>
  </defs>
  <metadata
     id="metadata8494">
    <rdf:RDF>
      <cc:Work
         rdf:about="">
        <dc:format>image/svg+xml</dc:format>
        <dc:type
           rdf:resource="http://purl.org/dc/dcmitype/StillImage" />
        <dc:title></dc:title>
      </cc:Work>
    </rdf:RDF>
  </metadata>
  <g
     clip-path="url(#clip8)"
     id="g7014"
     style="clip-rule:nonzero"
     transform="matrix(7.1863011,0,0,7.1863011,-258.70684,-5515.2896)">
    <path
       d="m 36,809.21484 41.746094,0 0,-41.74218 -41.746094,0 z"
       id="path7016"
       style="fill:url(#linear4);fill-rule:nonzero;stroke:none"
       inkscape:connector-curvature="0" />
  </g>
  <path
     d="m 241.94816,150.01406 c 0,50.78127 -41.12473,91.93406 -91.93412,91.93406 -50.781326,0 -91.962202,-41.15279 -91.962202,-91.93406 0,-50.809452 41.180876,-91.990335 91.962202,-91.990335 50.80939,0 91.93412,41.180883 91.93412,91.990335"
     id="path7018"
     style="fill:#ffffff;fill-opacity:1;fill-rule:nonzero;stroke:none"
     inkscape:connector-curvature="0" />
  <g
     clip-path="url(#clip9)"
     id="g7020"
     style="clip-rule:nonzero"
     transform="matrix(7.1863011,0,0,7.1863011,-258.70684,-5515.2896)">
    <path
       d="m 68.390625,776.82812 -23.035156,0 0,23.03516 23.035156,0 z"
       id="path7022"
       style="fill:url(#linear5);fill-rule:nonzero;stroke:none"
       inkscape:connector-curvature="0" />
  </g>
  <path
     d="m 102.51453,148.64616 c -0.84215,0.67335 -1.60007,1.2913 -2.30187,1.8808 -0.645617,0.58927 -1.515857,1.09483 -2.666786,1.68432 -1.122859,0.58928 -2.16151,1.01054 -3.256293,1.23511 -1.03865,0.30901 -2.498367,0.44914 -4.407229,0.44914 -3.508934,0 -6.428369,-1.23511 -8.730227,-3.56505 -2.329936,-2.38607 -3.508942,-5.3055 -3.508942,-8.92675 0,-3.00366 0.589493,-5.38973 1.768506,-7.1863 1.207076,-1.82467 2.891365,-3.28436 5.080937,-4.35109 2.24572,-1.06673 4.940582,-1.8246 8.02845,-2.24572 3.144007,-0.39309 6.484516,-0.78596 10.105744,-0.98251 l 0,-0.25224 c 0,-2.1615 -0.84215,-3.70547 -2.44223,-4.51954 -1.628142,-0.84216 -4.042294,-1.2632 -7.298587,-1.2632 -1.487787,0 -3.172076,0.28098 -5.137084,0.84216 -1.936931,0.47717 -3.845792,1.20708 -5.754653,2.02115 l -1.010574,0 0,-9.62857 c 1.235146,-0.39309 3.200154,-0.78597 5.951156,-1.29123 2.751009,-0.5052 5.502012,-0.75794 8.33723,-0.75794 6.849452,0 11.818112,1.17898 14.962112,3.4247 3.17208,2.30184 4.74408,5.81077 4.74408,10.47066 l 0,27.1451 -12.46374,-3.6e-4 z m 0,-6.23182 0,-8.28113 c -2.10537,0.22421 -3.789657,0.42111 -5.052872,0.58927 -1.263215,0.14014 -2.554507,0.39309 -3.789653,0.87026 -1.09479,0.36507 -1.936931,0.92632 -2.498361,1.71236 -0.61759,0.78596 -0.954434,1.79657 -0.954434,3.03168 0,1.85277 0.533367,3.14401 1.515864,3.84582 0.982504,0.7021 2.470291,1.01054 4.463369,1.01054 1.010573,0 2.133433,-0.16816 3.228215,-0.72984 1.179012,-0.44915 2.189582,-1.17899 3.087872,-2.04918"
     id="path7024"
     style="fill:#ffffff;fill-opacity:1;fill-rule:nonzero;stroke:none"
     inkscape:connector-curvature="0" />
  <path
     d="m 142.23569,153.89553 c -3.28437,0 -6.34416,-0.44914 -9.06709,-1.2632 -2.69487,-0.84217 -5.05287,-2.10537 -7.07402,-3.81773 -2.02115,-1.76847 -3.56508,-3.92997 -4.68794,-6.51258 -1.12286,-2.61064 -1.65622,-5.72655 -1.65622,-9.23555 0,-3.84575 0.56147,-7.01785 1.79658,-9.74074 1.20707,-2.66684 2.80715,-4.85643 4.91251,-6.56878 1.99308,-1.65623 4.32301,-2.89134 7.04594,-3.67738 2.6668,-0.81406 5.47395,-1.20701 8.39338,-1.20701 2.18957,0 4.43529,0.28098 6.5968,0.81406 2.21765,0.47718 4.40722,1.29124 6.62487,2.4141 l 0,10.6391 -1.60008,0 c -0.44914,-0.47717 -1.09479,-1.01054 -1.79657,-1.5158 -0.75793,-0.61731 -1.48779,-1.12286 -2.35801,-1.57201 -0.89828,-0.56125 -1.965,-0.89829 -3.03172,-1.2913 -1.179,-0.33704 -2.44222,-0.53323 -3.84579,-0.53323 -3.17208,0 -5.64237,1.09476 -7.3828,3.34048 -1.71236,2.1896 -2.63872,5.16516 -2.63872,8.89866 0,3.95814 0.95443,6.96172 2.80715,8.92675 1.85271,1.93692 4.29494,2.91943 7.41087,2.91943 1.57201,0 2.97558,-0.19618 4.18265,-0.5052 1.15093,-0.36506 2.16151,-0.81406 2.97558,-1.2913 0.87022,-0.5052 1.60008,-0.98251 2.18958,-1.54391 0.58949,-0.50519 1.12286,-0.98251 1.48778,-1.40355 l 1.60008,0 0,10.611 c -0.70182,0.30901 -1.51586,0.67336 -2.47029,1.09476 -0.92636,0.36507 -1.82465,0.7021 -2.83522,0.95442 -1.179,0.39309 -2.35801,0.56125 -3.39665,0.75793 -1.06672,0.19691 -2.44222,0.30902 -4.18265,0.30902"
     id="path7026"
     style="fill:#ffffff;fill-opacity:1;fill-rule:nonzero;stroke:none"
     inkscape:connector-curvature="0" />
  <path
     d="m 209.38269,152.8288 0,-19.9307 c 0,-1.93693 -0.028,-3.56513 -0.11232,-4.94059 -0.0842,-1.34743 -0.3088,-2.47029 -0.67372,-3.31245 -0.33682,-0.87019 -0.92636,-1.45975 -1.65622,-1.8527 -0.72986,-0.42112 -1.79657,-0.58928 -3.11593,-0.58928 -0.95443,0 -1.8808,0.16816 -2.83522,0.58928 -0.92636,0.42112 -1.93693,1.03864 -3.03172,1.76848 l 0,28.26796 -12.43567,0 0,-19.9307 c 0,-1.93693 -0.028,-3.56513 -0.11233,-4.94059 -0.11232,-1.34743 -0.28069,-2.47029 -0.64561,-3.31245 -0.39302,-0.87019 -0.92636,-1.45975 -1.65622,-1.8527 -0.786,-0.42112 -1.82465,-0.58928 -3.144,-0.58928 -1.03865,0 -2.02115,0.22422 -3.00365,0.67336 -0.98251,0.5052 -1.93694,1.06666 -2.83522,1.68425 l 0,28.26797 -12.43567,0 0,-39.83338 12.43567,0 0,4.40721 c 2.02114,-1.71235 3.95808,-3.08788 5.75465,-4.07039 1.76851,-0.95441 3.78965,-1.45968 6.06344,-1.45968 2.41415,0 4.57566,0.58927 6.37223,1.74038 1.90886,1.15095 3.28436,2.86331 4.26687,5.19325 2.38607,-2.21762 4.65986,-3.93005 6.73716,-5.13706 2.13343,-1.20708 4.26686,-1.79657 6.42836,-1.79657 1.85272,0 3.50894,0.33703 4.99673,0.89828 1.45971,0.61731 2.72294,1.51581 3.70543,2.66677 1.15094,1.29131 1.96501,2.80711 2.49837,4.57566 0.58949,1.76848 0.84214,4.04229 0.84214,6.9056 l 4e-5,25.91007 z"
     id="path7028"
     style="fill:#ffffff;fill-opacity:1;fill-rule:nonzero;stroke:none"
     inkscape:connector-curvature="0" />
  <path
     inkscape:connector-curvature="0"
     id="path3986"
     style="font-style:normal;font-variant:normal;font-weight:bold;font-stretch:normal;font-size:32.5px;line-height:125%;font-family:sans-serif;-inkscape-font-specification:'sans-serif Bold';letter-spacing:0px;word-spacing:0px;fill:#ffffff;fill-opacity:1;stroke:none;stroke-width:1px;stroke-linecap:butt;stroke-linejoin:miter;stroke-opacity:1"
     d="m 91.65979,187.85522 q -2.634277,0 -4.871826,-0.77758 -2.22168,-0.77759 -3.824463,-2.3169 -1.602783,-1.5393 -2.491455,-3.84033 -0.872803,-2.30103 -0.872803,-5.31616 0,-2.80884 0.841065,-5.094 0.841064,-2.28515 2.443847,-3.91967 1.539307,-1.57105 3.808594,-2.42798 2.285156,-0.85694 4.98291,-0.85694 1.491699,0 2.681885,0.17456 1.206055,0.1587 2.22168,0.42847 1.063232,0.30152 1.920166,0.68237 0.872802,0.36499 1.52344,0.68238 l 0,5.72876 -0.698245,0 q -0.444336,-0.38086 -1.126709,-0.90454 -0.666504,-0.52369 -1.523438,-1.0315 -0.872802,-0.50781 -1.888427,-0.85693 -1.015625,-0.34912 -2.174073,-0.34912 -1.2854,0 -2.443847,0.4126 -1.158447,0.39672 -2.142334,1.333 -0.936279,0.90454 -1.523438,2.39624 -0.571289,1.4917 -0.571289,3.61817 0,2.22168 0.618897,3.71338 0.634765,1.4917 1.586914,2.34863 0.968017,0.8728 2.158203,1.25366 1.190185,0.36499 2.348633,0.36499 1.11084,0 2.189941,-0.33325 1.094971,-0.33325 2.015381,-0.90454 0.777588,-0.46021 1.444092,-0.98389 0.666504,-0.52368 1.094971,-0.90454 l 0.634768,0 0,5.64941 q -0.888675,0.39673 -1.698001,0.74585 -0.809326,0.34913 -1.697998,0.60303 -1.158447,0.33325 -2.174072,0.50781 -1.015625,0.17456 -2.792969,0.17456 z" />
  <path
     inkscape:connector-curvature="0"
     id="path3988"
     style="font-style:normal;font-variant:normal;font-weight:bold;font-stretch:normal;font-size:32.5px;line-height:125%;font-family:sans-serif;-inkscape-font-specification:'sans-serif Bold';letter-spacing:0px;word-spacing:0px;fill:#ffffff;fill-opacity:1;stroke:none;stroke-width:1px;stroke-linecap:butt;stroke-linejoin:miter;stroke-opacity:1"
     d="m 122.11267,187.39502 -5.74463,0 0,-8.83911 q 0,-1.0791 -0.11108,-2.14234 -0.11109,-1.0791 -0.38086,-1.58691 -0.31738,-0.58716 -0.93628,-0.85693 -0.60303,-0.26978 -1.698,-0.26978 -0.77759,0 -1.58691,0.25391 -0.79346,0.2539 -1.72974,0.80932 l 0,12.63184 -5.71289,0 0,-24.69238 5.71289,0 0,8.83911 q 1.52344,-1.19019 2.91992,-1.82495 1.41236,-0.63477 3.12622,-0.63477 2.88819,0 4.50684,1.68213 1.63452,1.68213 1.63452,5.03052 l 0,11.60034 z" />
  <path
     inkscape:connector-curvature="0"
     id="path3990"
     style="font-style:normal;font-variant:normal;font-weight:bold;font-stretch:normal;font-size:32.5px;line-height:125%;font-family:sans-serif;-inkscape-font-specification:'sans-serif Bold';letter-spacing:0px;word-spacing:0px;fill:#ffffff;fill-opacity:1;stroke:none;stroke-width:1px;stroke-linecap:butt;stroke-linejoin:miter;stroke-opacity:1"
     d="m 138.17224,182.74536 0,-3.71338 q -1.15845,0.0952 -2.50732,0.26978 -1.34888,0.15869 -2.04712,0.38086 -0.85694,0.26977 -1.31714,0.79345 -0.44434,0.50782 -0.44434,1.34888 0,0.55542 0.0952,0.90454 0.0952,0.34912 0.47607,0.66651 0.36499,0.31738 0.87281,0.47607 0.50781,0.14282 1.58691,0.14282 0.85693,0 1.72974,-0.34912 0.88867,-0.34912 1.55517,-0.92041 z m 0,2.76123 q -0.4602,0.34912 -1.14258,0.84107 -0.68237,0.49194 -1.2854,0.77758 -0.84106,0.38086 -1.7456,0.55542 -0.90454,0.19043 -1.98365,0.19043 -2.53906,0 -4.25293,-1.57104 -1.71386,-1.57105 -1.71386,-4.01489 0,-1.95191 0.8728,-3.1897 0.8728,-1.23779 2.47559,-1.95191 1.58691,-0.71411 3.93554,-1.01562 2.34864,-0.30151 4.87183,-0.44434 l 0,-0.0952 q 0,-1.47583 -1.20606,-2.03125 -1.20605,-0.57129 -3.55468,-0.57129 -1.41236,0 -3.01514,0.50781 -1.60278,0.49195 -2.30102,0.76172 l -0.52369,0 0,-4.30054 q 0.90454,-0.23803 2.93579,-0.55542 2.04712,-0.33325 4.09424,-0.33325 4.87183,0 7.03003,1.50757 2.17407,1.4917 2.17407,4.69727 l 0,12.12402 -5.66528,0 0,-1.88843 z" />
  <path
     inkscape:connector-curvature="0"
     id="path3992"
     style="font-style:normal;font-variant:normal;font-weight:bold;font-stretch:normal;font-size:32.5px;line-height:125%;font-family:sans-serif;-inkscape-font-specification:'sans-serif Bold';letter-spacing:0px;word-spacing:0px;fill:#ffffff;fill-opacity:1;stroke:none;stroke-width:1px;stroke-linecap:butt;stroke-linejoin:miter;stroke-opacity:1"
     d="m 167.68884,178.23853 q 0,2.20581 -0.68237,4.01489 -0.6665,1.80908 -1.76147,2.9834 -1.14258,1.23779 -2.58667,1.87255 -1.4441,0.63477 -3.09449,0.63477 -1.52343,0 -2.58667,-0.33325 -1.06323,-0.31738 -2.17407,-0.90454 l 0,7.42676 -5.71289,0 0,-24.35914 5.71289,0 0,1.85669 q 1.31714,-1.04736 2.68189,-1.69799 1.38061,-0.65064 3.17382,-0.65064 3.33252,0 5.17334,2.44385 1.85669,2.44385 1.85669,6.71265 z m -5.88745,0.11108 q 0,-2.60254 -0.88867,-3.77686 -0.88867,-1.17431 -2.80884,-1.17431 -0.80932,0 -1.66626,0.2539 -0.85693,0.23804 -1.63452,0.69825 l 0,8.96606 q 0.57129,0.22217 1.22192,0.28564 0.65064,0.0635 1.2854,0.0635 2.26929,0 3.38013,-1.31714 1.11084,-1.33301 1.11084,-3.99902 z" />
  <path
     inkscape:connector-curvature="0"
     id="path3994"
     style="font-style:normal;font-variant:normal;font-weight:bold;font-stretch:normal;font-size:32.5px;line-height:125%;font-family:sans-serif;-inkscape-font-specification:'sans-serif Bold';letter-spacing:0px;word-spacing:0px;fill:#ffffff;fill-opacity:1;stroke:none;stroke-width:1px;stroke-linecap:butt;stroke-linejoin:miter;stroke-opacity:1"
     d="m 183.20886,187.23633 q -0.92041,0.23804 -1.9519,0.36499 -1.0315,0.14282 -2.5232,0.14282 -3.33251,0 -4.96704,-1.34888 -1.61865,-1.34887 -1.61865,-4.61792 l 0,-8.3313 -2.34863,0 0,-3.87207 2.34863,0 0,-5.09399 5.71289,0 0,5.09399 5.3479,0 0,3.87207 -5.3479,0 0,6.31592 q 0,0.93628 0.0159,1.63452 0.0159,0.69825 0.25391,1.25367 0.22217,0.55542 0.77759,0.88867 0.57128,0.31738 1.65039,0.31738 0.44433,0 1.15844,-0.19043 0.72998,-0.19043 1.01563,-0.34912 l 0.47607,0 0,3.91968 z" />
  <path
     inkscape:connector-curvature="0"
     id="path3996"
     style="font-style:normal;font-variant:normal;font-weight:bold;font-stretch:normal;font-size:32.5px;line-height:125%;font-family:sans-serif;-inkscape-font-specification:'sans-serif Bold';letter-spacing:0px;word-spacing:0px;fill:#ffffff;fill-opacity:1;stroke:none;stroke-width:1px;stroke-linecap:butt;stroke-linejoin:miter;stroke-opacity:1"
     d="m 204.15613,179.53979 -13.07617,0 q 0.12695,2.09473 1.58691,3.20557 1.47583,1.11084 4.33228,1.11084 1.80908,0 3.50708,-0.65063 1.69799,-0.65064 2.68188,-1.39649 l 0.63477,0 0,4.58618 q -1.93604,0.77759 -3.64991,1.12671 -1.71386,0.34912 -3.79272,0.34912 -5.36377,0 -8.22022,-2.41211 -2.85644,-2.41211 -2.85644,-6.87133 0,-4.41162 2.69775,-6.98243 2.71363,-2.58667 7.42676,-2.58667 4.34815,0 6.53809,2.20582 2.18994,2.18994 2.18994,6.31591 l 0,1.99951 z m -5.68115,-3.34838 q -0.0476,-1.79322 -0.88868,-2.69776 -0.84106,-0.90454 -2.6184,-0.90454 -1.6504,0 -2.71363,0.85693 -1.06323,0.85694 -1.19018,2.74537 l 7.41089,0 z" />
  <path
     inkscape:connector-curvature="0"
     id="path3998"
     style="font-style:normal;font-variant:normal;font-weight:bold;font-stretch:normal;font-size:32.5px;line-height:125%;font-family:sans-serif;-inkscape-font-specification:'sans-serif Bold';letter-spacing:0px;word-spacing:0px;fill:#ffffff;fill-opacity:1;stroke:none;stroke-width:1px;stroke-linecap:butt;stroke-linejoin:miter;stroke-opacity:1"
     d="m 221.10437,175.01709 -0.50781,0 q -0.36499,-0.12695 -1.17432,-0.19043 -0.80932,-0.0635 -1.34888,-0.0635 -1.22192,0 -2.1582,0.15869 -0.93628,0.1587 -2.01538,0.53956 l 0,11.93359 -5.71289,0 0,-17.82105 5.71289,0 0,2.61841 q 1.88843,-1.61865 3.28491,-2.14233 1.39649,-0.53955 2.5708,-0.53955 0.30152,0 0.68238,0.0159 0.38086,0.0159 0.6665,0.0476 l 0,5.44312 z" />
</svg>
